# MagicaVoxel @ Ephtracy

# group
o 

# material
mtllib fishing_rod.vox.mtl
usemtl palette

# normals
vn -1 0 0
vn 1 0 0
vn 0 0 1
vn 0 0 -1
vn 0 -1 0
vn 0 1 0

# texcoords
vt 0.802734 0.5
vt 0.826172 0.5
vt 0.837891 0.5
vt 0.927734 0.5
vt 0.958984 0.5

# verts
v -0.3 1.6 0
v -0.3 1.6 -0.4
v -0.3 1.7 -0.1
v -0.3 1.7 -0.4
v -0.3 1.7 -4
v -0.3 1.8 0
v -0.3 1.8 -0.1
v -0.3 2 0
v -0.3 2 -4
v -0.3 2.1 0
v -0.3 2.1 -4
v -0.2 0 -3.9
v -0.2 0 -4
v -0.2 0.6 -3.8
v -0.2 0.6 -3.9
v -0.2 0.7 -3.9
v -0.2 0.7 -4
v -0.2 0.9 -3.7
v -0.2 0.9 -3.8
v -0.2 1 -3.8
v -0.2 1 -3.9
v -0.2 1.1 -3.6
v -0.2 1.1 -3.7
v -0.2 1.2 -3.7
v -0.2 1.2 -3.8
v -0.2 1.3 -0.1
v -0.2 1.3 -0.3
v -0.2 1.4 0
v -0.2 1.4 -0.1
v -0.2 1.4 -0.3
v -0.2 1.4 -0.4
v -0.2 1.4 -3.5
v -0.2 1.4 -3.6
v -0.2 1.5 -3.6
v -0.2 1.5 -3.7
v -0.2 1.6 0
v -0.2 1.6 -0.1
v -0.2 1.6 -0.3
v -0.2 1.6 -0.4
v -0.2 1.6 -0.5
v -0.2 1.7 -0.4
v -0.2 1.7 -0.5
v -0.2 1.7 -3.5
v -0.2 1.7 -3.6
v -0.1 1.6 -0.1
v -0.1 1.6 -0.3
v -0.1 1.7 -0.1
v -0.1 1.7 -0.2
v -0.1 1.7 -0.3
v -0.2 1.6 -0.1
v -0.2 1.6 -0.3
v -0.2 1.7 -0.1
v -0.2 1.7 -0.2
v -0.2 1.7 -0.3
v -0.1 0 -3.9
v -0.1 0 -4
v -0.1 0.6 -3.8
v -0.1 0.6 -3.9
v -0.1 0.7 -3.9
v -0.1 0.7 -4
v -0.1 0.9 -3.7
v -0.1 0.9 -3.8
v -0.1 1 -3.8
v -0.1 1 -3.9
v -0.1 1.1 -3.6
v -0.1 1.1 -3.7
v -0.1 1.2 -3.7
v -0.1 1.2 -3.8
v -0.1 1.3 -0.1
v -0.1 1.3 -0.3
v -0.1 1.4 0
v -0.1 1.4 -0.1
v -0.1 1.4 -0.3
v -0.1 1.4 -0.4
v -0.1 1.4 -3.5
v -0.1 1.4 -3.6
v -0.1 1.5 -3.6
v -0.1 1.5 -3.7
v -0.1 1.6 0
v -0.1 1.6 -0.1
v -0.1 1.6 -0.3
v -0.1 1.6 -0.4
v -0.1 1.6 -0.5
v -0.1 1.7 -0.4
v -0.1 1.7 -0.5
v -0.1 1.7 -3.5
v -0.1 1.7 -3.6
v 0 1.6 0
v 0 1.6 -0.4
v 0 1.7 -0.1
v 0 1.7 -0.4
v 0 1.7 -4
v 0 1.8 0
v 0 1.8 -0.1
v 0 2 0
v 0 2 -4
v 0 2.1 0
v 0 2.1 -4
v -0.3 1.6 0
v -0.3 1.8 0
v -0.3 2 0
v -0.3 2.1 0
v -0.2 1.4 0
v -0.2 1.6 0
v -0.1 1.4 0
v -0.1 1.6 0
v 0 1.6 0
v 0 1.8 0
v 0 2 0
v 0 2.1 0
v -0.2 1.3 -0.1
v -0.2 1.4 -0.1
v -0.1 1.3 -0.1
v -0.1 1.4 -0.1
v -0.2 1.4 -0.3
v -0.2 1.6 -0.3
v -0.2 1.7 -0.3
v -0.1 1.4 -0.3
v -0.1 1.6 -0.3
v -0.1 1.7 -0.3
v -0.2 1.4 -3.5
v -0.2 1.7 -3.5
v -0.1 1.4 -3.5
v -0.1 1.7 -3.5
v -0.2 1.1 -3.6
v -0.2 1.4 -3.6
v -0.1 1.1 -3.6
v -0.1 1.4 -3.6
v -0.2 0.9 -3.7
v -0.2 1.1 -3.7
v -0.1 0.9 -3.7
v -0.1 1.1 -3.7
v -0.2 0.6 -3.8
v -0.2 0.9 -3.8
v -0.1 0.6 -3.8
v -0.1 0.9 -3.8
v -0.2 0 -3.9
v -0.2 0.6 -3.9
v -0.1 0 -3.9
v -0.1 0.6 -3.9
v -0.2 1.4 -0.1
v -0.2 1.6 -0.1
v -0.2 1.7 -0.1
v -0.1 1.4 -0.1
v -0.1 1.6 -0.1
v -0.1 1.7 -0.1
v -0.2 1.3 -0.3
v -0.2 1.4 -0.3
v -0.1 1.3 -0.3
v -0.1 1.4 -0.3
v -0.3 1.6 -0.4
v -0.3 1.7 -0.4
v -0.2 1.4 -0.4
v -0.2 1.6 -0.4
v -0.2 1.7 -0.4
v -0.1 1.4 -0.4
v -0.1 1.6 -0.4
v -0.1 1.7 -0.4
v 0 1.6 -0.4
v 0 1.7 -0.4
v -0.2 1.6 -0.5
v -0.2 1.7 -0.5
v -0.1 1.6 -0.5
v -0.1 1.7 -0.5
v -0.2 1.5 -3.6
v -0.2 1.7 -3.6
v -0.1 1.5 -3.6
v -0.1 1.7 -3.6
v -0.2 1.2 -3.7
v -0.2 1.5 -3.7
v -0.1 1.2 -3.7
v -0.1 1.5 -3.7
v -0.2 1 -3.8
v -0.2 1.2 -3.8
v -0.1 1 -3.8
v -0.1 1.2 -3.8
v -0.2 0.7 -3.9
v -0.2 1 -3.9
v -0.1 0.7 -3.9
v -0.1 1 -3.9
v -0.3 1.7 -4
v -0.3 2 -4
v -0.3 2.1 -4
v -0.2 0 -4
v -0.2 0.7 -4
v -0.1 0 -4
v -0.1 0.7 -4
v 0 1.7 -4
v 0 2 -4
v 0 2.1 -4
v -0.2 0 -3.9
v -0.1 0 -3.9
v -0.2 0 -4
v -0.1 0 -4
v -0.2 0.6 -3.8
v -0.1 0.6 -3.8
v -0.2 0.6 -3.9
v -0.1 0.6 -3.9
v -0.2 0.9 -3.7
v -0.1 0.9 -3.7
v -0.2 0.9 -3.8
v -0.1 0.9 -3.8
v -0.2 1.1 -3.6
v -0.1 1.1 -3.6
v -0.2 1.1 -3.7
v -0.1 1.1 -3.7
v -0.2 1.3 -0.1
v -0.1 1.3 -0.1
v -0.2 1.3 -0.3
v -0.1 1.3 -0.3
v -0.2 1.4 0
v -0.1 1.4 0
v -0.2 1.4 -0.1
v -0.1 1.4 -0.1
v -0.2 1.4 -0.3
v -0.1 1.4 -0.3
v -0.2 1.4 -0.4
v -0.1 1.4 -0.4
v -0.2 1.4 -3.5
v -0.1 1.4 -3.5
v -0.2 1.4 -3.6
v -0.1 1.4 -3.6
v -0.3 1.6 0
v -0.2 1.6 0
v -0.1 1.6 0
v 0 1.6 0
v -0.2 1.6 -0.1
v -0.1 1.6 -0.1
v -0.2 1.6 -0.3
v -0.1 1.6 -0.3
v -0.3 1.6 -0.4
v -0.2 1.6 -0.4
v -0.1 1.6 -0.4
v 0 1.6 -0.4
v -0.2 1.6 -0.5
v -0.1 1.6 -0.5
v -0.2 1.7 -0.1
v -0.1 1.7 -0.1
v -0.2 1.7 -0.2
v -0.1 1.7 -0.2
v -0.2 1.7 -0.3
v -0.1 1.7 -0.3
v -0.3 1.7 -0.4
v -0.2 1.7 -0.4
v -0.1 1.7 -0.4
v 0 1.7 -0.4
v -0.2 1.7 -0.5
v -0.1 1.7 -0.5
v -0.2 1.7 -3.5
v -0.1 1.7 -3.5
v -0.2 1.7 -3.6
v -0.1 1.7 -3.6
v -0.3 1.7 -4
v 0 1.7 -4
v -0.2 0.7 -3.9
v -0.1 0.7 -3.9
v -0.2 0.7 -4
v -0.1 0.7 -4
v -0.2 1 -3.8
v -0.1 1 -3.8
v -0.2 1 -3.9
v -0.1 1 -3.9
v -0.2 1.2 -3.7
v -0.1 1.2 -3.7
v -0.2 1.2 -3.8
v -0.1 1.2 -3.8
v -0.2 1.4 -0.1
v -0.1 1.4 -0.1
v -0.2 1.4 -0.3
v -0.1 1.4 -0.3
v -0.2 1.5 -3.6
v -0.1 1.5 -3.6
v -0.2 1.5 -3.7
v -0.1 1.5 -3.7
v -0.3 2.1 0
v 0 2.1 0
v -0.3 2.1 -4
v 0 2.1 -4

# faces
f 3/3/1 2/3/1 1/3/1
f 4/3/1 2/3/1 3/3/1
f 6/3/1 3/3/1 1/3/1
f 7/4/1 5/4/1 4/4/1
f 7/3/1 3/3/1 6/3/1
f 7/4/1 4/4/1 3/4/1
f 8/4/1 7/4/1 6/4/1
f 9/4/1 5/4/1 7/4/1
f 9/4/1 7/4/1 8/4/1
f 10/1/1 9/1/1 8/1/1
f 11/1/1 9/1/1 10/1/1
f 15/5/1 13/5/1 12/5/1
f 16/5/1 13/5/1 15/5/1
f 16/5/1 15/5/1 14/5/1
f 17/5/1 13/5/1 16/5/1
f 19/5/1 16/5/1 14/5/1
f 20/5/1 16/5/1 19/5/1
f 20/5/1 19/5/1 18/5/1
f 21/5/1 16/5/1 20/5/1
f 23/5/1 20/5/1 18/5/1
f 24/5/1 20/5/1 23/5/1
f 24/5/1 23/5/1 22/5/1
f 25/5/1 20/5/1 24/5/1
f 29/3/1 27/3/1 26/3/1
f 30/3/1 27/3/1 29/3/1
f 33/5/1 24/5/1 22/5/1
f 34/5/1 33/5/1 32/5/1
f 34/5/1 24/5/1 33/5/1
f 35/5/1 24/5/1 34/5/1
f 36/3/1 29/3/1 28/3/1
f 37/3/1 29/3/1 36/3/1
f 38/3/1 31/3/1 30/3/1
f 39/3/1 31/3/1 38/3/1
f 41/3/1 40/3/1 39/3/1
f 42/3/1 40/3/1 41/3/1
f 43/5/1 34/5/1 32/5/1
f 44/5/1 34/5/1 43/5/1
f 47/3/1 46/3/1 45/3/1
f 48/3/1 46/3/1 47/3/1
f 49/3/1 46/3/1 48/3/1
f 50/3/2 51/3/2 52/3/2
f 52/3/2 51/3/2 53/3/2
f 53/3/2 51/3/2 54/3/2
f 55/5/2 56/5/2 58/5/2
f 58/5/2 56/5/2 59/5/2
f 57/5/2 58/5/2 59/5/2
f 59/5/2 56/5/2 60/5/2
f 57/5/2 59/5/2 62/5/2
f 62/5/2 59/5/2 63/5/2
f 61/5/2 62/5/2 63/5/2
f 63/5/2 59/5/2 64/5/2
f 61/5/2 63/5/2 66/5/2
f 66/5/2 63/5/2 67/5/2
f 65/5/2 66/5/2 67/5/2
f 67/5/2 63/5/2 68/5/2
f 69/3/2 70/3/2 72/3/2
f 72/3/2 70/3/2 73/3/2
f 65/5/2 67/5/2 76/5/2
f 75/5/2 76/5/2 77/5/2
f 76/5/2 67/5/2 77/5/2
f 77/5/2 67/5/2 78/5/2
f 71/3/2 72/3/2 79/3/2
f 79/3/2 72/3/2 80/3/2
f 73/3/2 74/3/2 81/3/2
f 81/3/2 74/3/2 82/3/2
f 82/3/2 83/3/2 84/3/2
f 84/3/2 83/3/2 85/3/2
f 75/5/2 77/5/2 86/5/2
f 86/5/2 77/5/2 87/5/2
f 88/3/2 89/3/2 90/3/2
f 90/3/2 89/3/2 91/3/2
f 88/3/2 90/3/2 93/3/2
f 91/4/2 92/4/2 94/4/2
f 93/3/2 90/3/2 94/3/2
f 90/4/2 91/4/2 94/4/2
f 93/4/2 94/4/2 95/4/2
f 94/4/2 92/4/2 96/4/2
f 95/4/2 94/4/2 96/4/2
f 95/1/2 96/1/2 97/1/2
f 97/1/2 96/1/2 98/1/2
f 104/3/3 100/3/3 99/3/3
f 105/3/3 104/3/3 103/3/3
f 106/3/3 100/3/3 104/3/3
f 106/3/3 104/3/3 105/3/3
f 107/3/3 100/3/3 106/3/3
f 108/4/3 101/4/3 100/4/3
f 108/3/3 100/3/3 107/3/3
f 109/1/3 102/1/3 101/1/3
f 109/4/3 101/4/3 108/4/3
f 110/1/3 102/1/3 109/1/3
f 113/3/3 112/3/3 111/3/3
f 114/3/3 112/3/3 113/3/3
f 118/3/3 116/3/3 115/3/3
f 118/3/3 117/3/3 116/3/3
f 119/3/3 117/3/3 118/3/3
f 120/3/3 117/3/3 119/3/3
f 123/5/3 122/5/3 121/5/3
f 124/5/3 122/5/3 123/5/3
f 127/5/3 126/5/3 125/5/3
f 128/5/3 126/5/3 127/5/3
f 131/5/3 130/5/3 129/5/3
f 132/5/3 130/5/3 131/5/3
f 135/5/3 134/5/3 133/5/3
f 136/5/3 134/5/3 135/5/3
f 139/5/3 138/5/3 137/5/3
f 140/5/3 138/5/3 139/5/3
f 141/3/4 142/3/4 144/3/4
f 142/3/4 143/3/4 144/3/4
f 144/3/4 143/3/4 145/3/4
f 145/3/4 143/3/4 146/3/4
f 147/3/4 148/3/4 149/3/4
f 149/3/4 148/3/4 150/3/4
f 151/3/4 152/3/4 154/3/4
f 154/3/4 152/3/4 155/3/4
f 153/3/4 154/3/4 156/3/4
f 156/3/4 154/3/4 157/3/4
f 157/3/4 158/3/4 159/3/4
f 159/3/4 158/3/4 160/3/4
f 161/3/4 162/3/4 163/3/4
f 163/3/4 162/3/4 164/3/4
f 165/5/4 166/5/4 167/5/4
f 167/5/4 166/5/4 168/5/4
f 169/5/4 170/5/4 171/5/4
f 171/5/4 170/5/4 172/5/4
f 173/5/4 174/5/4 175/5/4
f 175/5/4 174/5/4 176/5/4
f 177/5/4 178/5/4 179/5/4
f 179/5/4 178/5/4 180/5/4
f 184/5/4 185/5/4 186/5/4
f 186/5/4 185/5/4 187/5/4
f 181/4/4 182/4/4 188/4/4
f 182/1/4 183/1/4 189/1/4
f 188/4/4 182/4/4 189/4/4
f 189/1/4 183/1/4 190/1/4
f 193/5/5 192/5/5 191/5/5
f 194/5/5 192/5/5 193/5/5
f 197/5/5 196/5/5 195/5/5
f 198/5/5 196/5/5 197/5/5
f 201/5/5 200/5/5 199/5/5
f 202/5/5 200/5/5 201/5/5
f 205/5/5 204/5/5 203/5/5
f 206/5/5 204/5/5 205/5/5
f 209/3/5 208/3/5 207/3/5
f 210/3/5 208/3/5 209/3/5
f 213/3/5 212/3/5 211/3/5
f 214/3/5 212/3/5 213/3/5
f 217/3/5 216/3/5 215/3/5
f 218/3/5 216/3/5 217/3/5
f 221/5/5 220/5/5 219/5/5
f 222/5/5 220/5/5 221/5/5
f 227/3/5 224/3/5 223/3/5
f 228/3/5 226/3/5 225/3/5
f 229/3/5 227/3/5 223/3/5
f 230/3/5 226/3/5 228/3/5
f 231/3/5 229/3/5 223/3/5
f 232/3/5 229/3/5 231/3/5
f 233/3/5 226/3/5 230/3/5
f 234/3/5 226/3/5 233/3/5
f 235/3/5 233/3/5 232/3/5
f 236/3/5 233/3/5 235/3/5
f 239/2/5 238/2/5 237/2/5
f 240/2/5 238/2/5 239/2/5
f 241/4/5 240/4/5 239/4/5
f 242/4/5 240/4/5 241/4/5
f 247/4/5 244/4/5 243/4/5
f 248/4/5 246/4/5 245/4/5
f 249/4/5 247/4/5 243/4/5
f 249/4/5 248/4/5 247/4/5
f 250/4/5 246/4/5 248/4/5
f 250/4/5 248/4/5 249/4/5
f 251/4/5 249/4/5 243/4/5
f 252/4/5 246/4/5 250/4/5
f 253/4/5 251/4/5 243/4/5
f 253/4/5 252/4/5 251/4/5
f 254/4/5 246/4/5 252/4/5
f 254/4/5 252/4/5 253/4/5
f 255/5/6 256/5/6 257/5/6
f 257/5/6 256/5/6 258/5/6
f 259/5/6 260/5/6 261/5/6
f 261/5/6 260/5/6 262/5/6
f 263/5/6 264/5/6 265/5/6
f 265/5/6 264/5/6 266/5/6
f 267/3/6 268/3/6 269/3/6
f 269/3/6 268/3/6 270/3/6
f 271/5/6 272/5/6 273/5/6
f 273/5/6 272/5/6 274/5/6
f 275/1/6 276/1/6 277/1/6
f 277/1/6 276/1/6 278/1/6
